<svg xmlns="http://www.w3.org/2000/svg" viewBox="0 0 800 500" width="100%" height="100%">
  <defs>
    <linearGradient id="bgGrad" x1="0%" y1="0%" x2="100%" y2="100%">
      <stop offset="0%" stop-color="#1E1916" />
      <stop offset="100%" stop-color="#0E0C0B" />
    </linearGradient>
    <linearGradient id="goldGrad" x1="0%" y1="100%" x2="100%" y2="0%">
      <stop offset="0%" stop-color="#C5A059" />
      <stop offset="50%" stop-color="#E5C384" />
      <stop offset="100%" stop-color="#A37F3C" />
    </linearGradient>
  </defs>
  <rect width="800" height="500" fill="url(#bgGrad)" />
  <rect x="20" y="20" width="760" height="460" fill="none" stroke="url(#goldGrad)" stroke-width="1" opacity="0.2" />
  
  <g transform="translate(400, 210)" stroke="url(#goldGrad)" stroke-width="2.5" fill="none" stroke-linejoin="round" stroke-linecap="round">
    <path d="M -120 100 L -120 -40 L -95 -40 L -95 -60 L -70 -60 L -70 -40 L -30 -40 L -30 -10 L 30 -10 L 30 -40 L 70 -40 L 70 -60 L 95 -60 L 95 -40 L 120 -40 L 120 100 Z" opacity="0.8" />
    <path d="M -25 100 L -25 50 C -25 32, 25 32, 25 50 L 25 100" stroke-width="3" />
    <line x1="-120" y1="20" x2="-80" y2="20" opacity="0.4" />
    <line x1="80" y1="20" x2="120" y2="20" opacity="0.4" />
    <line x1="-60" y1="50" x2="-40" y2="50" opacity="0.4" />
    <line x1="40" y1="50" x2="60" y2="50" opacity="0.4" />
    
    <path d="M -200 130 C -100 120, -100 140, 0 130 C 100 120, 100 140, 200 130" stroke-width="1.5" opacity="0.5" />
    <path d="M -180 145 C -90 138, -90 152, 0 145 C 90 138, 90 152, 180 145" stroke-width="1" opacity="0.3" />
  </g>

  <text x="400" y="395" fill="#E5C384" font-family="'Inter', sans-serif" font-size="11" font-weight="bold" letter-spacing="6" text-anchor="middle" opacity="0.6">THE CHRONICLES</text>
  <text x="400" y="430" fill="#F5EFE6" font-family="'Playfair Display', 'Georgia', serif" font-size="28" font-weight="bold" text-anchor="middle" letter-spacing="1">SURAT CASTLE</text>
</svg>
